HIERARCHY
ROOT Hips
{
	OFFSET 0.000000 97.420761 0.000000
	CHANNELS 6 Xposition Yposition Zposition Xrotation Yrotation Zrotation
	JOINT RightUpLeg
	{
		OFFSET -8.571318 0.002251 -0.000250
		CHANNELS 6 Xposition Yposition Zposition Xrotation Yrotation Zrotation
		JOINT RightLeg
		{
			OFFSET 0.000000 -44.326080 -0.000105
			CHANNELS 6 Xposition Yposition Zposition Xrotation Yrotation Zrotation
			JOINT RightFoot
			{
				OFFSET 0.000000 -43.324329 -0.000176
				CHANNELS 6 Xposition Yposition Zposition Xrotation Yrotation Zrotation
				JOINT RightToeBase
				{
					OFFSET 0.000000 -7.938133 18.050686
					CHANNELS 6 Xposition Yposition Zposition Xrotation Yrotation Zrotation
					End Site
					{
						OFFSET 0.000000 0.000000 19.719055
					}
				}
			}
		}
	}
	JOINT LeftUpLeg
	{
		OFFSET 8.571318 -0.000084 0.000009
		CHANNELS 6 Xposition Yposition Zposition Xrotation Yrotation Zrotation
		JOINT LeftLeg
		{
			OFFSET 0.000000 -44.326080 -0.000105
			CHANNELS 6 Xposition Yposition Zposition Xrotation Yrotation Zrotation
			JOINT LeftFoot
			{
				OFFSET 0.000000 -43.324329 -0.000176
				CHANNELS 6 Xposition Yposition Zposition Xrotation Yrotation Zrotation
				JOINT LeftToeBase
				{
					OFFSET 0.000000 -7.938133 18.050686
					CHANNELS 6 Xposition Yposition Zposition Xrotation Yrotation Zrotation
					End Site
					{
						OFFSET 0.000000 0.000000 19.719055
					}
				}
			}
		}
	}
	JOINT Spine
	{
		OFFSET 0.000000 10.422829 -1.158092
		CHANNELS 6 Xposition Yposition Zposition Xrotation Yrotation Zrotation
		JOINT Spine1
		{
			OFFSET 0.000000 11.587624 0.000000
			CHANNELS 3 Xrotation Yrotation Zrotation
			JOINT Spine2
			{
				OFFSET 0.000000 10.579559 -0.000443
				CHANNELS 6 Xposition Yposition Zposition Xrotation Yrotation Zrotation
				JOINT Spine3
				{
					OFFSET 0.000000 10.567749 -0.000444
					CHANNELS 6 Xposition Yposition Zposition Xrotation Yrotation Zrotation
					JOINT LeftShoulder
					{
						OFFSET 3.218383 8.290512 0.000000
						CHANNELS 6 Xposition Yposition Zposition Xrotation Yrotation Zrotation
						JOINT LeftArm
						{
							OFFSET 15.038529 0.000000 0.000000
							CHANNELS 3 Xrotation Yrotation Zrotation
							JOINT LeftForeArm
							{
								OFFSET 32.129166 0.000000 0.000000
								CHANNELS 3 Xrotation Yrotation Zrotation
								JOINT LeftHand
								{
									OFFSET 26.275406 0.000000 0.000000
									CHANNELS 3 Xrotation Yrotation Zrotation
									End Site
									{
										OFFSET 26.275406 0.000000 0.000000
									}
								}
							}
						}
					}
					JOINT RightShoulder
					{
						OFFSET -3.218383 8.290512 0.000000
						CHANNELS 6 Xposition Yposition Zposition Xrotation Yrotation Zrotation
						JOINT RightArm
						{
							OFFSET -15.038529 0.000000 0.000000
							CHANNELS 3 Xrotation Yrotation Zrotation
							JOINT RightForeArm
							{
								OFFSET -32.129166 0.000000 0.000000
								CHANNELS 3 Xrotation Yrotation Zrotation
								JOINT RightHand
								{
									OFFSET -26.275406 0.000000 0.000000
									CHANNELS 3 Xrotation Yrotation Zrotation
									End Site
									{
										OFFSET -26.275406 0.000000 0.000000
									}
								}
							}
						}
					}
					JOINT Neck
					{
						OFFSET 0.000000 14.789474 0.000000
						CHANNELS 6 Xposition Yposition Zposition Xrotation Yrotation Zrotation
						JOINT Head
						{
							OFFSET 0.000000 9.838806 0.000953
							CHANNELS 6 Xposition Yposition Zposition Xrotation Yrotation Zrotation
							End Site
							{
								OFFSET 0.000000 9.838806 0.000000
							}
						}
					}
				}
			}
		}
	}
}
MOTION
Frames: 10
Frame Time: 0.016667
-2.979881 48.028336 73.772064 65.376091 24.454406 -43.611198 -8.571318 0.002259 -0.000248 -52.882501 -0.066124 -2.592386 0.000006 -44.326080 -0.000107 103.517889 -0.637807 -1.301429 0.000006 -43.324329 -0.000177 -9.504351 5.850624 1.257129 -0.000003 -7.938128 18.050686 -91.193605 2.009755 -2.180623 8.571321 -0.000086 0.000008 -56.913948 -0.286427 6.207218 -0.000005 -44.326077 -0.000101 105.677424 -1.102961 -0.908015 -0.000002 -43.324333 -0.000176 -5.129299 -11.240593 -12.040723 0.000003 -7.938132 18.050690 -99.975562 -5.356846 4.511756 0.000006 10.422831 -1.158090 11.021357 -2.062411 -6.258432 -0.894254 -0.476573 -2.892836 0.000003 10.579555 -0.000444 4.926184 -0.476274 -2.892891 -0.000005 10.567756 -0.000440 9.529721 -0.552997 -2.128523 3.218400 8.290523 0.000003 -10.246879 -16.629810 5.105910 -48.798147 -44.970116 -65.983582 -15.544341 -3.898339 4.614722 21.347126 -44.910580 50.916475 -3.218375 8.290517 0.000002 -0.536543 4.946228 11.926938 -67.090414 33.283088 88.684132 2.419565 29.365866 -3.122039 2.654738 24.841591 -16.154202 0.000003 14.789468 0.000001 16.832820 2.076884 0.961979 0.000005 9.838799 0.000948 -4.807970 3.451654 2.478005 
-2.686508 48.033215 73.932327 65.676770 24.378304 -43.691095 -8.571315 0.002252 -0.000252 -52.689824 -0.187395 -2.809473 -0.000004 -44.326080 -0.000105 102.868741 -0.661030 -1.343774 0.000004 -43.324333 -0.000175 -9.398529 5.901571 1.272939 0.000002 -7.938129 18.050686 -92.135523 1.991960 -2.087383 8.571326 -0.000091 0.000009 -56.751943 -0.263521 5.987065 -0.000001 -44.326073 -0.000092 105.237171 -1.131586 -0.907378 -0.000008 -43.324333 -0.000177 -5.134216 -11.174559 -12.044657 0.000001 -7.938126 18.050690 -99.974572 -5.420758 4.563832 0.000009 10.422822 -1.158091 10.950900 -2.011147 -6.266847 -0.926154 -0.454438 -2.892830 0.000009 10.579553 -0.000444 4.894282 -0.454136 -2.892880 0.000005 10.567749 -0.000446 9.505672 -0.536604 -2.129983 3.218403 8.290514 -0.000006 -10.352248 -16.530796 5.108076 -49.113776 -45.018726 -66.722369 -15.629104 -3.652130 4.583042 21.981922 -45.251356 51.536205 -3.218370 8.290507 0.000003 -0.498874 5.095039 11.727747 -69.600789 33.646273 89.499015 2.939745 28.078844 -3.918966 3.483155 26.298583 -18.398081 0.000016 14.789480 -0.000002 16.828958 2.023303 1.037630 -0.000006 9.838797 0.000945 -4.814296 3.327583 2.597313 
-2.408321 48.019070 74.086212 65.974594 24.309763 -43.766158 -8.571319 0.002258 -0.000244 -52.501868 -0.289351 -3.031674 0.000000 -44.326073 -0.000108 102.146777 -0.618972 -1.352810 -0.000004 -43.324333 -0.000176 -9.243392 5.920024 1.248920 -0.000004 -7.938126 18.050690 -93.618118 2.017032 -2.002296 8.571322 -0.000077 0.000010 -56.604066 -0.245200 5.764248 -0.000010 -44.326084 -0.000101 104.835535 -1.123237 -0.902071 -0.000002 -43.324329 -0.000176 -5.134924 -11.150554 -12.054535 -0.000001 -7.938126 18.050686 -99.986245 -5.483062 4.614227 0.000006 10.422830 -1.158094 10.872276 -1.984281 -6.265524 -0.961446 -0.443803 -2.890197 0.000003 10.579559 -0.000453 4.858991 -0.443504 -2.890243 0.000010 10.567755 -0.000442 9.479141 -0.528645 -2.128689 3.218387 8.290523 0.000004 -10.415776 -16.357663 5.099828 -49.467990 -45.031666 -67.469667 -15.630586 -3.456855 4.579054 22.544559 -45.531930 52.088344 -3.218377 8.290515 -0.000002 -0.475487 5.274237 11.501837 -72.046611 34.050928 90.351559 3.438136 26.584143 -4.798597 4.402559 27.613241 -20.646263 0.000006 14.789472 -0.000002 16.809111 1.979811 1.094992 -0.000007 9.838809 0.000949 -4.850357 3.227967 2.687182 
-2.125690 47.993313 74.241867 66.283434 24.238122 -43.839989 -8.571314 0.002252 -0.000255 -52.313723 -0.384551 -3.266099 -0.000009 -44.326080 -0.000101 101.372028 -0.543294 -1.347917 -0.000007 -43.324326 -0.000174 -9.062899 5.928490 1.205012 0.000001 -7.938134 18.050688 -95.376126 2.064829 -1.923210 8.571321 -0.000085 0.000010 -56.459658 -0.230286 5.530051 -0.000003 -44.326088 -0.000110 104.437547 -1.092825 -0.896491 0.000002 -43.324329 -0.000176 -5.136421 -11.147396 -12.070224 -0.000005 -7.938130 18.050690 -100.004522 -5.546045 4.664829 0.000003 10.422831 -1.158090 10.784575 -1.974013 -6.254501 -1.000617 -0.441259 -2.884409 0.000004 10.579564 -0.000442 4.819818 -0.440960 -2.884455 -0.000013 10.567748 -0.000445 9.449769 -0.526530 -2.124494 3.218383 8.290518 0.000007 -10.457736 -16.116931 5.078952 -49.855412 -45.028189 -68.254504 -15.591413 -3.293245 4.597775 23.077841 -45.781573 52.609990 -3.218393 8.290508 0.000002 -0.458482 5.493276 11.236052 -74.593247 34.476479 91.281640 3.925809 24.793570 -5.758919 5.427671 28.814444 -23.019329 -0.000007 14.789475 0.000000 16.777359 1.941056 1.143402 0.000003 9.838806 0.000950 -4.908527 3.139826 2.762643 
-1.863712 47.972988 74.379692 66.561211 24.152988 -43.905457 -8.571316 0.002250 -0.000248 -52.168903 -0.475923 -3.475362 0.000005 -44.326080 -0.000105 100.831337 -0.474225 -1.347452 -0.000001 -43.324322 -0.000176 -8.979821 5.922814 1.160478 0.000008 -7.938130 18.050692 -96.198679 2.057893 -1.859420 8.571323 -0.000090 0.000006 -56.334847 -0.226922 5.322844 -0.000004 -44.326077 -0.000106 104.070903 -1.062948 -0.912816 0.000001 -43.324329 -0.000174 -5.137755 -11.137705 -12.081216 -0.000004 -7.938126 18.050688 -100.013722 -5.595928 4.705667 0.000002 10.422830 -1.158088 10.705288 -1.969929 -6.232362 -1.036045 -0.442072 -2.874180 -0.000005 10.579552 -0.000443 4.784399 -0.441777 -2.874226 -0.000000 10.567753 -0.000440 9.423224 -0.526605 -2.116748 3.218392 8.290511 -0.000000 -10.496536 -15.840906 5.044737 -50.200374 -45.028668 -68.966087 -15.541935 -3.206650 4.602468 23.536429 -45.981759 53.064699 -3.218379 8.290510 -0.000001 -0.454857 5.743031 10.963060 -76.901605 34.874570 92.113092 4.250013 22.974250 -6.595091 6.293176 29.587939 -24.974527 -0.000003 14.789476 -0.000002 16.749477 1.905357 1.176360 0.000003 9.838813 0.000951 -4.959441 3.062687 2.810875 
-1.601261 47.964367 74.504845 66.816018 24.038007 -43.966177 -8.571303 0.002251 -0.000256 -52.070661 -0.566276 -3.666893 -0.000007 -44.326080 -0.000113 100.629368 -0.409838 -1.358007 -0.000004 -43.324333 -0.000174 -9.058450 5.901586 1.117416 0.000003 -7.938129 18.050688 -95.450698 1.967320 -1.825352 8.571329 -0.000083 0.000003 -56.219728 -0.240753 5.136837 -0.000003 -44.326077 -0.000104 103.705877 -1.035416 -0.970052 -0.000003 -43.324329 -0.000174 -5.138251 -11.103075 -12.084649 0.000003 -7.938134 18.050688 -100.007630 -5.622974 4.729311 0.000011 10.422834 -1.158097 10.630636 -1.975023 -6.191309 -1.069421 -0.448136 -2.856268 -0.000003 10.579566 -0.000438 4.751017 -0.447844 -2.856308 -0.000006 10.567743 -0.000447 9.398264 -0.530065 -2.102908 3.218387 8.290510 0.000002 -10.540290 -15.499543 4.985180 -50.489701 -45.034787 -69.617441 -15.489669 -3.221009 4.579185 23.945776 -46.148644 53.481003 -3.218385 8.290517 0.000008 -0.465884 6.060542 10.656045 -79.134756 35.320233 92.900033 4.356616 20.983495 -7.351844 6.931687 29.885421 -26.435342 -0.000002 14.789481 -0.000003 16.729701 1.876421 1.184970 -0.000002 9.838804 0.000954 -4.995281 3.006537 2.816882 
-1.328026 47.959587 74.628075 67.071802 23.897591 -44.025924 -8.571324 0.002249 -0.000254 -52.001276 -0.663379 -3.857494 -0.000007 -44.326080 -0.000107 100.616705 -0.345886 -1.375877 0.000009 -43.324337 -0.000175 -9.234277 5.864694 1.069087 -0.000004 -7.938130 18.050688 -93.772282 1.821285 -1.796945 8.571313 -0.000084 0.000012 -56.110264 -0.266001 4.954461 -0.000008 -44.326080 -0.000096 103.328024 -1.005103 -1.053359 0.000001 -43.324322 -0.000174 -5.138692 -11.059174 -12.084129 -0.000003 -7.938132 18.050688 -99.992726 -5.642018 4.747494 -0.000011 10.422834 -1.158094 10.555376 -1.985494 -6.135468 -1.103098 -0.457559 -2.832204 0.000009 10.579558 -0.000441 4.717343 -0.457268 -2.832249 0.000009 10.567744 -0.000443 9.373102 -0.535609 -2.084248 3.218384 8.290511 0.000000 -10.585187 -15.087087 4.906989 -50.776258 -45.048366 -70.278535 -15.420325 -3.306994 4.539663 24.330626 -46.289572 53.880630 -3.218377 8.290517 0.000003 -0.488994 6.441904 10.307370 -81.398315 35.797039 93.686481 4.330194 18.747471 -8.102636 7.414379 29.880599 -27.602268 -0.000004 14.789477 -0.000000 16.711125 1.846124 1.181390 -0.000007 9.838813 0.000952 -5.028770 2.952195 2.800132 
-1.082493 47.951794 74.743896 67.318973 23.763756 -44.080473 -8.571321 0.002257 -0.000246 -51.952099 -0.776595 -4.031077 -0.000001 -44.326077 -0.000110 100.576509 -0.316430 -1.400583 -0.000001 -43.324329 -0.000177 -9.380697 5.818513 1.023066 0.000003 -7.938130 18.050690 -92.403799 1.660915 -1.723923 8.571313 -0.000083 0.000010 -56.023947 -0.286986 4.787507 -0.000008 -44.326088 -0.000098 102.982286 -0.984964 -1.120359 0.000007 -43.324322 -0.000175 -5.140380 -11.034332 -12.081343 0.000003 -7.938135 18.050690 -99.978192 -5.682232 4.783341 -0.000005 10.422832 -1.158093 10.492570 -1.977432 -6.088943 -1.131402 -0.458011 -2.811032 -0.000012 10.579553 -0.000443 4.689038 -0.457720 -2.811077 0.000002 10.567749 -0.000446 9.351917 -0.534623 -2.068367 3.218390 8.290520 0.000000 -10.632960 -14.702821 4.846568 -51.097683 -45.086154 -70.943433 -15.339367 -3.387119 4.494521 24.674140 -46.394060 54.241797 -3.218372 8.290514 -0.000001 -0.518791 6.789139 9.992531 -83.314183 36.131595 94.293774 4.319097 16.721420 -8.735374 7.774091 29.815637 -28.548504 0.000005 14.789468 -0.000003 16.691188 1.794602 1.198766 -0.000001 9.838807 0.000942 -5.064263 2.851814 2.814139 
-0.852428 47.936993 74.862373 67.576942 23.632086 -44.131778 -8.571320 0.002252 -0.000247 -51.915076 -0.925263 -4.197169 0.000001 -44.326080 -0.000110 100.427256 -0.342715 -1.439517 -0.000002 -43.324322 -0.000176 -9.468835 5.769392 0.977948 -0.000003 -7.938125 18.050690 -91.649124 1.482090 -1.580973 8.571321 -0.000086 0.000017 -55.956376 -0.299498 4.624422 -0.000005 -44.326080 -0.000098 102.648686 -0.979141 -1.164239 -0.000003 -43.324337 -0.000175 -5.144180 -11.038664 -12.075695 -0.000002 -7.938127 18.050688 -99.966403 -5.763003 4.852834 0.000001 10.422828 -1.158088 10.441833 -1.938966 -6.058169 -1.154613 -0.443855 -2.794783 0.000015 10.579558 -0.000443 4.665827 -0.443566 -2.794828 0.000010 10.567752 -0.000439 9.334471 -0.523042 -2.057170 3.218386 8.290508 0.000001 -10.696475 -14.341845 4.815105 -51.518655 -45.154319 -71.698599 -15.235343 -3.422608 4.442876 25.018467 -46.473871 54.611239 -3.218382 8.290517 0.000002 -0.563590 7.099445 9.702477 -84.951694 36.308449 94.719288 4.357834 14.836332 -9.287406 8.044009 29.736868 -29.371815 0.000001 14.789467 -0.000001 16.667642 1.719379 1.250884 -0.000001 9.838811 0.000949 -5.105884 2.695995 2.883180 
-0.621677 47.917740 74.987671 67.857110 23.491539 -44.184378 -8.571319 0.002252 -0.000249 -51.893045 -1.105549 -4.366538 -0.000013 -44.326077 -0.000102 100.234310 -0.402409 -1.488118 -0.000002 -43.324329 -0.000176 -9.539566 5.704852 0.929654 -0.000006 -7.938128 18.050688 -91.096651 1.269789 -1.381813 8.571319 -0.000083 0.000012 -55.902807 -0.309300 4.456546 0.000003 -44.326080 -0.000107 102.306555 -0.982220 -1.197979 0.000002 -43.324326 -0.000174 -5.149556 -11.061086 -12.067398 0.000004 -7.938134 18.050688 -99.953139 -5.872406 4.946543 0.000000 10.422824 -1.158090 10.396746 -1.879046 -6.032516 -1.175543 -0.419835 -2.779357 0.000002 10.579564 -0.000447 4.644896 -0.419551 -2.779403 0.000001 10.567742 -0.000441 9.318677 -0.504137 -2.047272 3.218378 8.290518 -0.000002 -10.770181 -13.965427 4.795618 -52.021132 -45.250669 -72.545242 -15.109070 -3.458773 4.380272 25.360935 -46.528543 54.984269 -3.218389 8.290508 -0.000001 -0.619484 7.414103 9.410599 -86.436303 36.388994 95.005513 4.417543 12.938391 -9.805595 8.230214 29.611889 -30.084798 -0.000012 14.789481 0.000000 16.639878 1.614488 1.328760 0.000001 9.838809 0.000944 -5.154401 2.476956 2.988770 
